<svg clip-rule="evenodd" fill-rule="evenodd" viewBox="0 0 560 400" xmlns="http://www.w3.org/2000/svg"><g transform="matrix(.271084 0 0 .271084 163.434 64.7289)"><path d="m410.5 55h38l2.5 1v148.5l-.5.5h-42.5v-148.5l1.5-.5zm-29 3c3.6-.4 5.433-.233 5.5.5v147.5l-3.5 1h-10l-1 1h-8l-1 1-19.5 2v-144.5l2.5-.5 9-3zm91.5 0 16.5 2 25.5 6v144.5c0 .667-1.5.833-4.5.5l-8-2-26-2-3.5-1zm64.5 15c27.133 9.533 51.3 22.033 72.5 37.5l-41.5 112.5c-8.867-3.467-18.867-5.8-30-7l-1.5-1.5zm-218 1 2.5.5v140l-1.5 1.5-17 3-13.5 4-41-112.5c20.667-15 44.167-27.167 70.5-36.5zm-212 88 33 1 1 1 11 1 21 6c20.733 7.6 38.233 18.433 52.5 32.5-17.133 14.867-30.467 33.533-40 56l-8 25-3 17v9l-1.5 4.5-47-18-8.5-2-1-30.5-9-30c-7.733-17.267-18.233-31.767-31.5-43.5l-21.5-15.5 19.5-7.5 17-4 15-1zm620 0h25l1 1 14 1 14 3 22.5 8.5c-13.067 7.933-24.4 17.6-34 29-10.6 12.4-18.6 27.4-24 45l-4 18-1 27.5-55.5 20-4.5-32.5-8-24c-9.867-21.8-22.867-40.467-39-56 10.8-10.2 23.3-18.7 37.5-25.5l27-10zm-301 64c3.667-1 6-.667 7 1h28l1 1h13l1 1h10l1 1 15 1 45 8 12 3 1.5 1.5-10 30-2.5 3.5-39-8-23-2-1-1h-9l-1-1h-13l-1-1h-63l-1 1-24 1-1 1h-8l-1 1-20 2-33.5 7-12-33.5 1.5-1.5c6.667-.333 12.333-1.667 17-4l40-7 26-2 1-1 42-1zm-187 6 30 59 97.5 35c3.333 18.467 10.833 33.133 22.5 44l13-4 12-1 1-1h28l1 1h7l10 2 8 3 14.5-18.5 9.5-25.5 97.5-35 28.5-59c11.733 11.933 20.9 26.433 27.5 43.5l7 28 1 22.5-70.5 25-5 2-3.5 3.5-7 15-1 13 2 10 4 9 11.5 12.5c4.133 3.533 10.133 5.2 18 5l8-2 7-4 68-68c5-4.667 12.333-7 22-7 .867 1.467 2.867 1.8 6 1l9 4 8.5 7.5 5 9 2 12-2 10-7.5 11.5c-5.2-7.8-14.2-11.8-27-12l-9 2-10 6-66 65c-5.333 3.667-11.667 6.333-19 8l-5 1h-17c-15.867-3.133-28.033-9.967-36.5-20.5-5.333-6.333-9.333-14-12-23l-1-5v-20c2.333-11.733 6.667-21.233 13-28.5l-22 7c-7.533 22.267-19.7 40.267-36.5 54l-5 2c-7.2-5.467-15.867-9.467-26-12l-11-2h-20l-20 5c-7 2.333-13 5.667-18 10l-14.5-13.5c-11.133-12.133-19.967-26.633-26.5-43.5l-21-7 1.5 2.5c8.533 9.533 12.533 23.533 12 42l-2 10-6 14-14.5 16.5-19 10-9 2h-17c-11.8-2.2-21.467-6.533-29-13l-62-62c-5-4.667-12.333-7-22-7l-9 2-14 9c-6.867-5.133-9.7-14.3-8.5-27.5 1.667-8 5.167-14.167 10.5-18.5 5.333-5.333 13.333-8 24-8l11 3 5 3 68 68 11 6 10 1 9-2 11.5-9.5c4.133-4.533 7.133-10.2 9-17l1-18c-1.733-8.933-5.233-16.1-10.5-21.5l-75.5-27.5v-19l7-30c6.6-17.4 15.767-32.233 27.5-44.5zm-173.5 114c2.533-.467 4.2.367 5 2.5 10.6 27.4 26.433 49.567 47.5 66.5l29 20 31.5 13.5c1.2 3.533.033 4.7-3.5 3.5-22.2 4.467-39.033 14.3-50.5 29.5l-11 18-5 15-1 11-1.5 1.5c-3.2 1.133-4.367.3-3.5-2.5l-10-32-14-59-9-50v-6l-4-22zm724.5 0 3.5 1.5-4 32-12 65-13 53-9 29.5h-4v-1.5l-3-16-5-13c-4.467-8.533-9.967-16.033-16.5-22.5-7.133-7.2-15.8-12.867-26-17l-13-4h-4l-4.5-2.5c-.733-2.2-.233-3.033 1.5-2.5 30.933-10.4 56.1-26.567 75.5-48.5 13.867-15.133 25.033-32.967 33.5-53.5zm-370 104c12.133-1.467 21.8-.467 29 3 8.2 3.467 15.033 8.3 20.5 14.5l3.5 4.5 7-4 8-2h17c11.2 2.467 20.033 7.3 26.5 14.5 8.8 8.333 13.133 20.833 13 37.5l-30 15 1-8.5c-1.133-7.2-4.3-12.367-9.5-15.5-3.333-2.667-8-4-14-4-7.533 1.133-13.033 4.3-16.5 9.5-2.8 3.533-4.133 8.533-4 15 1.267 6.733 4.267 11.733 9 15l-26.5 5.5-38 1-1-1h-10l-1-1-13-1-13.5-3.5c6.8-3.533 9.8-10.867 9-22-1.667-6.067-4.833-10.567-9.5-13.5-3.333-2.667-8-4-14-4-6.8 1.2-11.967 4.033-15.5 8.5-4 4.2-5.333 10.7-4 19.5-10.667-3.867-20.333-9.033-29-15.5v-13l4-12c3.6-7.067 8.433-12.9 14.5-17.5l16-8 5-1h17l15 5c7.533-10.8 18.867-17.8 34-21zm-237 34 15 1 13 5 27 23 24 17c17.667 11.333 37 21 58 29l28 9 33 7 14 1 1 1h10l1 1h44l1-1 19-1 23-4 27-7 30-11c36.067-15.6 67.067-36.267 93-62 7.533-5.467 17.867-8.133 31-8l13 3c7.333 3 13.5 7.167 18.5 12.5 5.067 5.267 8.733 11.933 11 20 1.8 5.533 2.133 12.533 1 21l-2 8-5 10c-22.333 24.333-40.667 52.667-55 85l-10 25-8 26-8 39-1 16c-1.8 6.867-5.3 12.033-10.5 15.5-3.733 2.933-9.067 4.267-16 4l-7-2-18-10-28-12-43-13-20-4-21-2-1-1h-11l-1-1h-48l-1 1h-10l-1 1h-8l-1 1-18 2-37 9c-25.267 7.733-48.267 17.733-69 30l-10 1c-7.333-1.333-12.833-4.5-16.5-9.5l-4-8-4-32-7-30-14-40-23-45-14-21-23-29-5-16v-12c2.4-14.6 8.567-25.433 18.5-32.5l10-6zm32.5 59-12 4c-6.667 4-11 10-13 18-.667 6-.333 11 1 15l26 42 17 37 12 37 7 31c3.333-31.333 14-56 32-74l-1 2v18l1 1 1 14 6 21 10 18 50-13 24-3 1-1h7l1-1 25-1 1-1h37l1 1h14l1 1 25 2 27 5 27 7 10 4h4c6-10.667 10.667-23 14-37l1-12 1-1 1-23c16.667 17.333 27 41.667 31 73l1-2 2-15 5-20 14-40c10-24 22.333-45.667 37-65l4-12c0-8.667-2-15-6-19-4.667-6-11-9.667-19-11-6.667 0-11.667 1-15 3-2 33.333-11.667 59.333-29 78l-1-15-1-1-1-14-8-27-20 8-42 13-35 7-23 2-1 1h-12l-1 1h-49l-1-1-22-1-1-1h-7l-13-3h-5c-31.333-6-59.667-14.667-85-26l-4 7-5 17-1 11-1 1v13l-1 1 1 5v3c-10-10.667-17.667-23.333-23-38l-5-17-1-11-1-1v-10c-3.333-3.333-8.333-5-15-5zm198.5 129h31l1 1h15l1 1h10l1 1 15 1 36 7 30.5 9.5-6.5 15.5-34-9-28-5-27-2-1-1-34-1-1 1-34 1-1 1-22 2-26 5-30.5 8-5-15.5 1.5-1.5 17-5 30-7 24-3 1-1 18-1 1-1h16zm5 80h21l1 1 19 1 28 6 18 6c30.867 12.133 56.7 29.3 77.5 51.5-20.667 21.667-43.167 41.5-67.5 59.5l-.5-58.5-1.5-1.5-20-10-.5 86.5-2.5 2.5-18 12-.5-108-22-4v126.5l-1.5 1.5-15 9-6 2-20.5-12v-126.5l-2.5-.5-18.5 4-.5 109-20.5-14v-86.5l-1.5-1.5-20.5 10-.5 61c-24.067-18.267-46.567-38.1-67.5-59.5l13.5-14.5c16.2-14.133 34.867-25.8 56-35l37-12 16-3h7l1-1h12z" fill="#cfc366" stroke="#cfc366"/><g fill="#ac121b" fill-rule="nonzero" stroke="#ac121b"><path d="m409.5 1 62 1 1 1 24 1 1 1h8l1 1h8l1 1 20 2 51 10 57 16c39.533 13.133 76.533 28.8 111 47 37.333 19.667 72.167 41.833 104.5 66.5l-1 76-1 1-1 40-1 1v14l-1 1v12l-1 1v11l-1 1-2 29-1 1-1 16-2 8-3 28-16 83-15 57-15 46c-41.733 116.267-102.9 213.1-183.5 290.5-53.6 51.733-114.933 95.733-184 132-81.133-42.867-151.633-96.367-211.5-160.5-74.4-79.933-130.067-178.6-167-296l-12-42-13-56-9-50-4-34-1-1-3-34-1-1v-9l-1-1-1-23-1-1-1-28-1-1-1-46-1-1v-64c56.4-43.933 121.233-79.433 194.5-106.5l50-16 61-14 30-4 1-1 15-1 1-1h9l11-2h13l1-1h21zm6.5 53-1 1c-4.667-.667-7-.333-7 1v149h36c.667 2 3 2.333 7 1l1-1v-148l-1-2c-3.333.667-5.333.333-6-1zm-32 3-22 4-19 5v145l2 1 17-2 1-1 24-2v-149zm88 0v150l33 3 8 2h3v-146l-22-6zm-151 16c-26.667 10-50.667 22-72 36l3 12 36 99 3 3 32-7v-142zm215 0v142l5 2 29 6 41-112-8-7-26-15-29-13zm-425 88-1 1-16 1-18 4-22 9 21 14c14.667 12.667 26 29 34 49l4 12 4 19v25l55 20h3l3-27 8-26c8-19.333 18.333-35.667 31-49l10-9c-14-14-31-25-51-33l-30-8-16-1-1-1zm621 0-1 1h-10l-1 1-11 1-32 10c-16.667 7.333-31.333 17-44 29 15.333 14 27.667 31 37 51l11 32 2 17 1 1v11l7-1 51-19 1-29 7-26c6-16 14.333-29.333 25-40 8-9.333 17.667-17 29-23 1.333.667 1.667.333 1-1l-21-9-17-4-17-1-1-1zm-329 65-1 1h-15l-1 1h-10l-1 1-23 2-55 11 11 33 3 3 20-5 31-4 1-1 18-1 1-1h12l1-1h20l1-1h28l1 1h21l1 1 22 1 1 1h7l1 1h7l1 1 18 2 26 6 12-36-41-9-27-3-1-1h-8l-1-1-25-1-1-1zm-162 5c-13.333 12.667-23.333 28.333-30 47l-6 24-1 24 12 5 65 23c4 5.333 7 12 9 20 1.333 8 1 14.667-1 20l-8 15c-4 5.333-9.667 9-17 11l-14-1-9-5-68-68-13-6h-13l-12 5c-8 4.667-13 12.333-15 23-.667 12.667 2.667 21.667 10 27 4.667-5.333 11.667-9 21-11 10-.667 17.667 1.333 23 6l62 62 14 9 18 5h13l10-2c8-2.667 15-6.333 21-11 6-5.333 11-11.333 15-18l5-13 1-11 1-1-2-18c-2.667-9.333-6.333-17-11-23l20 7c8.667 23.333 22 42 40 56l18-9 19-5h24c.667 1.333 2.667 1.667 6 1 11.333 2.667 21.333 7 30 13l6-4c14.667-13.333 26-30 34-50l3-3 17-6 1 1-9 14-4 15v16l2 9c2.667 8.667 7 16.333 13 23l18 13 21 6c16.667.667 29.667-2.667 39-10l66-65c4-3.333 9.333-5.667 16-7 13.333 0 23 3.667 29 11 4.667-4 7.667-9.333 9-16v-13l-7-14c-4.667-6-10.667-10-18-12h-14l-14 7-68 68-12 5h-9l-7-2-9-6-10-16-2-8c-.667-13.333 1.667-23.333 7-30l4-4 7-3 68-24v-21l-1-1-1-11-5-17c-6.667-18-16-33.333-28-46l-29 58-4 3-93 33-3 5-3 12-6 12-12 15-14-4-14-1-1-1h-22l-1 1-18 2-10 3c-11.333-10-18.667-23.667-22-41l-7-5-90-32-5-6zm-173 114-3 3 4 34 11 60 11 46 11 38c.667 1.333 2.333 2 5 2l2-2v-7l4-15 12-21c11.333-16 29-26 53-30 1.333 0 2-1.333 2-4l-36-17c-12-6.667-22.333-14.333-31-23-18-16.667-32-37-42-61zm724 0-2 1c-8 20-18.667 37.333-32 52-10.667 11.333-22.333 21.333-35 30-11.333 8-24.333 14-39 18l-5 4 1 2 2 1 9 1 12 4c8 3.333 15.333 8 22 14 8.667 8 15.667 18.333 21 31l4 14 1 10c.667 1.333 2.333 1.667 5 1l1-1 7-23 16-65 11-61 3-28 1-1-1-3zm-370 104c-10.667 2-19 5.667-25 11l-10 10v1l-17-6c-16.667-.667-29 2.667-37 10-7.333 5.333-12.667 12.333-16 21l-3 11v11c9.333 6.667 19.667 12 31 16l-1-4c0-6.667 1.333-11.667 4-15 3.333-4.667 8-7.667 14-9l11 1 8 5 5 10c1.333 8.667 0 15-4 19l-5 4 2 1c4-.667 7 0 9 2l19 2 1 1h12l1 1 31-1 1-1h7l17-3 5-2c-4.667-3.333-7.667-8-9-14-.667-7.333.667-12.667 4-16 2.667-4.667 7.333-7.667 14-9h7l8 3c4.667 2.667 7.667 7.333 9 14 .667 5.333.333 9-1 11l7-2 22-12 3-5-1-10-3-10-6-10c-7.333-10.667-18-17.333-32-20h-14l-8 2-8 4-5-5-17-13-14-4zm-242 35c-9.333 2-16.667 5.333-22 10-6 4.667-10.667 10.333-14 17l-5 18c0 16.667 4.667 29 14 37-.667 1.333 0 1.667 2 1 20.667 25.333 37.667 54.333 51 87l14 42 7 34 2 21 5 10c3.333 3.333 8 6 14 8 6 1.333 11 1 15-1l38-19 42-14 41-8 17-1 1-1h18l1-1h19l1 1 27 1 1 1h7l1 1 18 2 26 6c28.667 8.667 55.333 19.667 80 33 9.333 1.333 16 0 20-4 4-3.333 7-7.667 9-13l4-32 7-30 15-42c14.667-35.333 34-65.667 58-91l6-17-1-19-8-17c-6.667-10-16.667-16.667-30-20-9.333-1.333-16.667-1-22 1-8.667 2-15.333 5.667-20 11l-4 5-24 19-23 15c-15.333 8.667-31.333 16.333-48 23l-31 10-23 5-19 2-1 1h-9l-1 1h-19l-1 1-31-1-1-1h-10l-1-1-19-2-30-7-24-8c-41.333-16-76.333-38.333-105-67l-18-7zm248 267-1 1h-17l-1 1h-8l-7 2h-5l-35 10c-25.333 10-47 23-65 39l-14 15c20.667 21.333 43.333 41 68 59h1v-59l21-11v87l21 14h1v-107l2-2 15-3c2.667-.667 4-.333 4 1v125l21 13 4-1 18-11 1-1v-126l16 3c2.667-.667 4-.333 4 1v108l4-1 17-12 2-2 1-86 18 9 1 2v59l14-9 38-33 17-17v-2c-18.667-20-41.333-36-68-48l-40-13-17-3h-8l-1-1z"/><path d="m213.5 544h8l8.5 3.5 1 15 7 26c5.467 14.533 12.967 27.033 22.5 37.5l2.5-31.5c1.8-10 4.467-18.833 8-26.5l41.5 15 26 7 25 5 21 2 1 1h9l1 1h13l1 1h40l1-1h14l1-1 17-1 34-6c25.6-5.733 49.267-13.4 71-23l5.5 12.5 4 17 1.5 28.5c9.4-10.267 16.9-22.433 22.5-36.5l7-25 1-17.5 8.5-3h8c7.867 1.467 13.7 4.967 17.5 10.5l5 11v9l-3 9c-14.133 18.533-26.133 39.2-36 62l-13 35-7 26-2 14.5c-2.667.933-3.333-.9-2-5.5-5.267-26.4-15.767-47.567-31.5-63.5l-.5 26.5-1 1-1 11c-3.133 13.867-7.967 26.033-14.5 36.5l-37-11-32-6h-7l-9-2h-10l-1-1-43-1-1 1-28 1-1 1h-8l-1 1-19 2-32 7-24 8c-12.933-18.067-18.933-43.067-18-75-8.667 9.333-15.833 20.167-21.5 32.5l-8 23-2.5 16.5-9.5-41.5-12-33c-9.933-24.067-22.267-45.733-37-65l-3-7-1-8 2-9 7.5-10.5zm210.5 127-1 1-33 1-1 1h-8l-1 1-19 2-36 8-21 6 6 18 49-12 27-3 1-1 27-1 1-1h30l1 1h16l1 1h10l9 2h7l36 7 24 7c3.333-4.667 5.333-10.667 6-18l-36-10-32-6-27-2-1-1z"/></g></g></svg>